<svg width="40" height="39" viewBox="0 0 40 39" fill="none" xmlns="http://www.w3.org/2000/svg">
<ellipse cx="20" cy="19.3756" rx="20" ry="19.3756" fill="white"/>
<path d="M15.7955 8.71902C12.0475 8.71902 9 11.6714 9 15.3023V24.4176C9 28.0486 12.0475 31.0009 15.7955 31.0009H25.2045C28.9525 31.0009 32 28.0486 32 24.4176V15.3023C32 11.6714 28.9525 8.71902 25.2045 8.71902H15.7955ZM26.7727 12.7703C27.3477 12.7703 27.8182 13.226 27.8182 13.7831C27.8182 14.3401 27.3477 14.7959 26.7727 14.7959C26.1977 14.7959 25.7273 14.3401 25.7273 13.7831C25.7273 13.226 26.1977 12.7703 26.7727 12.7703ZM20.5 14.2895C23.673 14.2895 26.25 16.7861 26.25 19.86C26.25 22.9339 23.673 25.4305 20.5 25.4305C17.327 25.4305 14.75 22.9339 14.75 19.86C14.75 16.7861 17.327 14.2895 20.5 14.2895ZM20.5 15.3023C17.9073 15.3023 15.7955 17.3482 15.7955 19.86C15.7955 22.3718 17.9073 24.4176 20.5 24.4176C23.0927 24.4176 25.2045 22.3718 25.2045 19.86C25.2045 17.3482 23.0927 15.3023 20.5 15.3023Z" fill="black"/>
</svg>
