<svg width="40" height="39" viewBox="0 0 40 39" fill="none" xmlns="http://www.w3.org/2000/svg">
<ellipse cx="20" cy="19.3756" rx="20" ry="19.3756" fill="white"/>
<path d="M32.5898 12.0719C31.6484 12.4768 30.6367 12.7493 29.5742 12.8742C30.6562 12.2422 31.4922 11.2469 31.8828 10.0587C30.8672 10.6414 29.7422 11.0653 28.5469 11.2923C27.5898 10.3046 26.2266 9.6878 24.7148 9.6878C21.8164 9.6878 19.4648 11.9659 19.4648 14.7739C19.4648 15.1712 19.5117 15.561 19.6016 15.9319C15.2383 15.72 11.3711 13.6916 8.78125 10.615C8.32812 11.368 8.07031 12.2422 8.07031 13.1769C8.07031 14.9404 8.99609 16.4957 10.4062 17.4078C9.54297 17.3813 8.73438 17.1542 8.02734 16.772C8.02734 16.7947 8.02734 16.8136 8.02734 16.8363C8.02734 19.2999 9.83594 21.3548 12.2383 21.824C11.7969 21.9413 11.3359 22.0019 10.8555 22.0019C10.5156 22.0019 10.1875 21.9716 9.86719 21.9111C10.5352 23.9281 12.4727 25.404 14.7695 25.4418C12.9766 26.8079 10.7109 27.6178 8.25 27.6178C7.82422 27.6178 7.41016 27.5951 7 27.5497C9.32031 28.9915 12.082 29.8316 15.0469 29.8316C24.7031 29.8316 29.9844 22.0814 29.9844 15.3642C29.9844 15.141 29.9805 14.9215 29.9688 14.702C30.9961 13.9905 31.8867 13.0937 32.5898 12.0719Z" fill="black"/>
</svg>
